<svg xmlns="http://www.w3.org/2000/svg" viewBox="0 0 200 240" width="200" height="240">
  <!-- Background -->
  <defs>
    <linearGradient id="grad2" x1="0%" y1="0%" x2="100%" y2="100%">
      <stop offset="0%" style="stop-color:#10b981;stop-opacity:0.1" />
      <stop offset="100%" style="stop-color:#059669;stop-opacity:0.1" />
    </linearGradient>
  </defs>
  <rect width="200" height="240" fill="url(#grad2)"/>
  
  <!-- Specification Document -->
  <rect x="50" y="30" width="100" height="110" fill="#10b981" stroke="#059669" stroke-width="2" rx="4"/>
  
  <!-- Document lines -->
  <line x1="60" y1="45" x2="140" y2="45" stroke="#d1fae5" stroke-width="2"/>
  <line x1="60" y1="60" x2="140" y2="60" stroke="#a7f3d0" stroke-width="1.5"/>
  <line x1="60" y1="72" x2="140" y2="72" stroke="#a7f3d0" stroke-width="1.5"/>
  <line x1="60" y1="84" x2="130" y2="84" stroke="#a7f3d0" stroke-width="1.5"/>
  <line x1="60" y1="96" x2="140" y2="96" stroke="#a7f3d0" stroke-width="1.5"/>
  <line x1="60" y1="108" x2="125" y2="108" stroke="#a7f3d0" stroke-width="1.5"/>
  <line x1="60" y1="120" x2="125" y2="120" stroke="#a7f3d0" stroke-width="1.5"/>
  
  <!-- Checkmark -->
  <g transform="translate(155, 45)">
    <circle cx="0" cy="0" r="10" fill="#f59e0b" stroke="#d97706" stroke-width="1.5"/>
    <path d="M -3 0 L -1 2 L 3 -2" stroke="white" stroke-width="2" fill="none" stroke-linecap="round" stroke-linejoin="round"/>
  </g>
  
  <!-- Caption background -->
  <rect x="10" y="155" width="180" height="70" fill="white" stroke="#10b981" stroke-width="2" rx="4"/>
  
  <!-- Caption text -->
  <text x="100" y="175" font-size="14" font-weight="bold" text-anchor="middle" fill="#065f46" font-family="Arial, sans-serif">Spec-Driven</text>
  <text x="100" y="195" font-size="12" text-anchor="middle" fill="#10b981" font-family="Arial, sans-serif">Executable</text>
  <text x="100" y="212" font-size="12" text-anchor="middle" fill="#10b981" font-family="Arial, sans-serif">Specifications</text>
</svg>